<svg xmlns="http://www.w3.org/2000/svg" viewBox="0 0 512 512">
<path d="M 487 146 L 486 147 L 485 147 L 483 149 L 482 149 L 481 150 L 480 150 L 479 151 L 478 151 L 477 152 L 476 152 L 474 154 L 473 154 L 472 155 L 471 155 L 470 156 L 469 156 L 467 158 L 466 158 L 465 159 L 464 159 L 463 160 L 462 160 L 460 162 L 459 162 L 458 163 L 457 163 L 456 164 L 455 164 L 454 165 L 453 165 L 451 167 L 450 167 L 449 168 L 448 168 L 447 169 L 446 169 L 444 171 L 443 171 L 442 172 L 441 172 L 440 173 L 439 173 L 438 174 L 437 174 L 435 176 L 434 176 L 433 177 L 432 177 L 431 178 L 430 178 L 428 180 L 427 180 L 426 181 L 425 181 L 424 182 L 423 182 L 422 183 L 421 183 L 419 185 L 418 185 L 417 186 L 416 186 L 415 187 L 414 187 L 412 189 L 411 189 L 410 190 L 409 190 L 408 191 L 407 191 L 406 192 L 405 192 L 403 194 L 402 194 L 401 195 L 400 195 L 399 196 L 398 196 L 396 198 L 395 198 L 394 199 L 393 199 L 392 200 L 391 200 L 390 201 L 389 201 L 387 203 L 386 203 L 385 204 L 384 204 L 383 205 L 382 205 L 380 207 L 379 207 L 378 208 L 377 208 L 376 209 L 375 209 L 373 211 L 372 211 L 371 212 L 370 212 L 369 213 L 368 213 L 367 214 L 366 214 L 364 216 L 363 216 L 362 217 L 361 217 L 360 218 L 359 218 L 357 220 L 356 220 L 355 221 L 354 221 L 353 222 L 352 222 L 351 223 L 350 223 L 348 225 L 347 225 L 346 226 L 345 226 L 344 227 L 343 227 L 341 229 L 340 229 L 339 230 L 338 230 L 337 231 L 336 231 L 335 232 L 334 232 L 332 234 L 331 234 L 330 235 L 329 235 L 328 236 L 327 236 L 325 238 L 324 238 L 323 239 L 322 239 L 321 240 L 320 240 L 319 241 L 318 241 L 316 243 L 315 243 L 314 244 L 313 244 L 312 245 L 311 245 L 309 247 L 308 247 L 307 248 L 306 248 L 305 249 L 304 249 L 302 251 L 301 251 L 300 252 L 299 252 L 298 253 L 297 253 L 296 254 L 295 254 L 293 256 L 292 256 L 291 257 L 290 257 L 289 258 L 288 258 L 286 260 L 285 260 L 284 261 L 283 261 L 282 262 L 281 262 L 280 263 L 279 263 L 277 265 L 276 265 L 275 266 L 274 266 L 273 267 L 272 267 L 270 269 L 270 511 L 272 511 L 273 510 L 274 510 L 276 508 L 277 508 L 278 507 L 279 507 L 281 505 L 282 505 L 283 504 L 284 504 L 285 503 L 286 503 L 288 501 L 289 501 L 290 500 L 291 500 L 293 498 L 294 498 L 295 497 L 296 497 L 297 496 L 298 496 L 300 494 L 301 494 L 302 493 L 303 493 L 305 491 L 306 491 L 307 490 L 308 490 L 309 489 L 310 489 L 312 487 L 313 487 L 314 486 L 315 486 L 317 484 L 318 484 L 319 483 L 320 483 L 321 482 L 322 482 L 324 480 L 325 480 L 326 479 L 327 479 L 328 478 L 329 478 L 331 476 L 332 476 L 333 475 L 334 475 L 336 473 L 337 473 L 338 472 L 339 472 L 340 471 L 341 471 L 343 469 L 344 469 L 345 468 L 346 468 L 348 466 L 349 466 L 350 465 L 351 465 L 352 464 L 353 464 L 355 462 L 356 462 L 357 461 L 358 461 L 360 459 L 361 459 L 362 458 L 363 458 L 364 457 L 365 457 L 367 455 L 368 455 L 369 454 L 370 454 L 372 452 L 373 452 L 374 451 L 375 451 L 376 450 L 377 450 L 379 448 L 380 448 L 381 447 L 382 447 L 384 445 L 385 445 L 386 444 L 387 444 L 388 443 L 389 443 L 391 441 L 392 441 L 393 440 L 394 440 L 396 438 L 397 438 L 398 437 L 399 437 L 400 436 L 401 436 L 403 434 L 404 434 L 405 433 L 406 433 L 408 431 L 409 431 L 410 430 L 411 430 L 412 429 L 413 429 L 415 427 L 416 427 L 417 426 L 418 426 L 420 424 L 421 424 L 422 423 L 423 423 L 424 422 L 425 422 L 427 420 L 428 420 L 429 419 L 430 419 L 432 417 L 433 417 L 434 416 L 435 416 L 436 415 L 437 415 L 439 413 L 440 413 L 441 412 L 442 412 L 443 411 L 444 411 L 446 409 L 447 409 L 448 408 L 449 408 L 451 406 L 452 406 L 453 405 L 454 405 L 455 404 L 456 404 L 458 402 L 459 402 L 460 401 L 461 401 L 463 399 L 464 399 L 465 398 L 466 398 L 467 397 L 468 397 L 470 395 L 471 395 L 472 394 L 473 394 L 475 392 L 476 392 L 477 391 L 478 391 L 479 390 L 480 390 L 482 388 L 483 388 L 484 387 L 485 387 L 487 385 L 488 385 L 488 146 Z" fill="white"/>
<path d="M 23 145 L 23 385 L 24 386 L 25 386 L 26 387 L 27 387 L 29 389 L 30 389 L 31 390 L 32 390 L 34 392 L 35 392 L 36 393 L 37 393 L 38 394 L 39 394 L 41 396 L 42 396 L 43 397 L 44 397 L 46 399 L 47 399 L 48 400 L 49 400 L 50 401 L 51 401 L 53 403 L 54 403 L 55 404 L 56 404 L 58 406 L 59 406 L 60 407 L 61 407 L 62 408 L 63 408 L 65 410 L 66 410 L 67 411 L 68 411 L 70 413 L 71 413 L 72 414 L 73 414 L 74 415 L 75 415 L 77 417 L 78 417 L 79 418 L 80 418 L 82 420 L 83 420 L 84 421 L 85 421 L 86 422 L 87 422 L 89 424 L 90 424 L 91 425 L 92 425 L 93 426 L 94 426 L 96 428 L 97 428 L 98 429 L 99 429 L 101 431 L 102 431 L 103 432 L 104 432 L 105 433 L 106 433 L 108 435 L 109 435 L 110 436 L 111 436 L 113 438 L 114 438 L 115 439 L 116 439 L 117 440 L 118 440 L 120 442 L 121 442 L 122 443 L 123 443 L 125 445 L 126 445 L 127 446 L 128 446 L 129 447 L 130 447 L 132 449 L 133 449 L 134 450 L 135 450 L 137 452 L 138 452 L 139 453 L 140 453 L 141 454 L 142 454 L 144 456 L 145 456 L 146 457 L 147 457 L 149 459 L 150 459 L 151 460 L 152 460 L 153 461 L 154 461 L 156 463 L 157 463 L 158 464 L 159 464 L 161 466 L 162 466 L 163 467 L 164 467 L 165 468 L 166 468 L 168 470 L 169 470 L 170 471 L 171 471 L 173 473 L 174 473 L 175 474 L 176 474 L 177 475 L 178 475 L 180 477 L 181 477 L 182 478 L 183 478 L 185 480 L 186 480 L 187 481 L 188 481 L 189 482 L 190 482 L 192 484 L 193 484 L 194 485 L 195 485 L 196 486 L 197 486 L 199 488 L 200 488 L 201 489 L 202 489 L 204 491 L 205 491 L 206 492 L 207 492 L 208 493 L 209 493 L 211 495 L 212 495 L 213 496 L 214 496 L 216 498 L 217 498 L 218 499 L 219 499 L 220 500 L 221 500 L 223 502 L 224 502 L 225 503 L 226 503 L 228 505 L 229 505 L 230 506 L 231 506 L 232 507 L 233 507 L 235 509 L 236 509 L 237 510 L 238 510 L 239 511 L 240 511 L 240 268 L 239 268 L 237 266 L 236 266 L 235 265 L 234 265 L 233 264 L 232 264 L 231 263 L 230 263 L 228 261 L 227 261 L 226 260 L 225 260 L 224 259 L 223 259 L 221 257 L 220 257 L 219 256 L 218 256 L 217 255 L 216 255 L 214 253 L 213 253 L 212 252 L 211 252 L 210 251 L 209 251 L 208 250 L 207 250 L 205 248 L 204 248 L 203 247 L 202 247 L 201 246 L 200 246 L 198 244 L 197 244 L 196 243 L 195 243 L 194 242 L 193 242 L 191 240 L 190 240 L 189 239 L 188 239 L 187 238 L 186 238 L 185 237 L 184 237 L 182 235 L 181 235 L 180 234 L 179 234 L 178 233 L 177 233 L 175 231 L 174 231 L 173 230 L 172 230 L 171 229 L 170 229 L 168 227 L 167 227 L 166 226 L 165 226 L 164 225 L 163 225 L 162 224 L 161 224 L 159 222 L 158 222 L 157 221 L 156 221 L 155 220 L 154 220 L 152 218 L 151 218 L 150 217 L 149 217 L 148 216 L 147 216 L 145 214 L 144 214 L 143 213 L 142 213 L 141 212 L 140 212 L 138 210 L 137 210 L 136 209 L 135 209 L 134 208 L 133 208 L 132 207 L 131 207 L 129 205 L 128 205 L 127 204 L 126 204 L 125 203 L 124 203 L 122 201 L 121 201 L 120 200 L 119 200 L 118 199 L 117 199 L 115 197 L 114 197 L 113 196 L 112 196 L 111 195 L 110 195 L 109 194 L 108 194 L 106 192 L 105 192 L 104 191 L 103 191 L 102 190 L 101 190 L 99 188 L 98 188 L 97 187 L 96 187 L 95 186 L 94 186 L 92 184 L 91 184 L 90 183 L 89 183 L 88 182 L 87 182 L 86 181 L 85 181 L 83 179 L 82 179 L 81 178 L 80 178 L 79 177 L 78 177 L 76 175 L 75 175 L 74 174 L 73 174 L 72 173 L 71 173 L 69 171 L 68 171 L 67 170 L 66 170 L 65 169 L 64 169 L 63 168 L 62 168 L 60 166 L 59 166 L 58 165 L 57 165 L 56 164 L 55 164 L 53 162 L 52 162 L 51 161 L 50 161 L 49 160 L 48 160 L 46 158 L 45 158 L 44 157 L 43 157 L 42 156 L 41 156 L 40 155 L 39 155 L 37 153 L 36 153 L 35 152 L 34 152 L 33 151 L 32 151 L 30 149 L 29 149 L 28 148 L 27 148 L 26 147 L 25 147 Z" fill="white"/>
<path d="M 134 66 L 132 68 L 131 68 L 130 69 L 129 69 L 128 70 L 127 70 L 126 71 L 125 71 L 123 73 L 122 73 L 121 74 L 120 74 L 119 75 L 118 75 L 117 76 L 116 76 L 115 77 L 114 77 L 112 79 L 111 79 L 110 80 L 109 80 L 108 81 L 107 81 L 106 82 L 105 82 L 103 84 L 102 84 L 101 85 L 100 85 L 99 86 L 98 86 L 97 87 L 96 87 L 94 89 L 93 89 L 92 90 L 91 90 L 90 91 L 89 91 L 88 92 L 87 92 L 85 94 L 84 94 L 83 95 L 82 95 L 81 96 L 80 96 L 79 97 L 78 97 L 76 99 L 75 99 L 74 100 L 73 100 L 72 101 L 71 101 L 70 102 L 69 102 L 68 103 L 67 103 L 65 105 L 64 105 L 63 106 L 62 106 L 61 107 L 60 107 L 59 108 L 58 108 L 56 110 L 55 110 L 54 111 L 53 111 L 52 112 L 51 112 L 50 113 L 49 113 L 47 115 L 46 115 L 45 116 L 44 116 L 43 117 L 42 117 L 41 118 L 40 118 L 38 120 L 39 120 L 41 122 L 42 122 L 43 123 L 44 123 L 45 124 L 46 124 L 48 126 L 49 126 L 50 127 L 51 127 L 52 128 L 53 128 L 54 129 L 55 129 L 57 131 L 58 131 L 59 132 L 60 132 L 61 133 L 62 133 L 64 135 L 65 135 L 66 136 L 67 136 L 68 137 L 69 137 L 71 139 L 72 139 L 73 140 L 74 140 L 75 141 L 76 141 L 77 142 L 78 142 L 80 144 L 81 144 L 82 145 L 83 145 L 84 146 L 85 146 L 87 148 L 88 148 L 89 149 L 90 149 L 91 150 L 92 150 L 94 152 L 95 152 L 96 153 L 97 153 L 98 154 L 99 154 L 100 155 L 101 155 L 103 157 L 104 157 L 105 158 L 106 158 L 107 159 L 108 159 L 110 161 L 111 161 L 112 162 L 113 162 L 114 163 L 115 163 L 117 165 L 118 165 L 119 166 L 120 166 L 121 167 L 122 167 L 123 168 L 124 168 L 126 170 L 127 170 L 128 171 L 129 171 L 130 172 L 131 172 L 133 174 L 134 174 L 135 175 L 136 175 L 137 176 L 138 176 L 140 178 L 141 178 L 142 179 L 143 179 L 144 180 L 145 180 L 147 182 L 148 182 L 149 183 L 150 183 L 151 184 L 152 184 L 153 185 L 154 185 L 156 187 L 157 187 L 158 188 L 159 188 L 160 189 L 161 189 L 163 191 L 164 191 L 165 192 L 166 192 L 167 193 L 168 193 L 170 195 L 171 195 L 172 196 L 173 196 L 174 197 L 175 197 L 176 198 L 177 198 L 179 200 L 180 200 L 181 201 L 182 201 L 183 202 L 184 202 L 186 204 L 187 204 L 188 205 L 189 205 L 190 206 L 191 206 L 193 208 L 194 208 L 195 209 L 196 209 L 197 210 L 198 210 L 199 211 L 200 211 L 202 213 L 203 213 L 204 214 L 205 214 L 206 215 L 207 215 L 209 217 L 210 217 L 211 218 L 212 218 L 213 219 L 214 219 L 216 221 L 217 221 L 218 222 L 219 222 L 220 223 L 221 223 L 222 224 L 223 224 L 225 226 L 226 226 L 227 227 L 228 227 L 229 228 L 230 228 L 232 230 L 233 230 L 234 231 L 235 231 L 236 232 L 237 232 L 239 234 L 240 234 L 241 235 L 242 235 L 243 236 L 244 236 L 245 237 L 246 237 L 248 239 L 249 239 L 250 240 L 251 240 L 252 241 L 253 241 L 254 242 L 257 242 L 258 241 L 259 241 L 260 240 L 261 240 L 263 238 L 264 238 L 265 237 L 266 237 L 267 236 L 268 236 L 270 234 L 271 234 L 272 233 L 273 233 L 274 232 L 275 232 L 276 231 L 277 231 L 279 229 L 280 229 L 281 228 L 282 228 L 283 227 L 284 227 L 286 225 L 287 225 L 288 224 L 289 224 L 290 223 L 291 223 L 292 222 L 293 222 L 295 220 L 296 220 L 297 219 L 298 219 L 299 218 L 300 218 L 302 216 L 303 216 L 304 215 L 305 215 L 306 214 L 307 214 L 308 213 L 309 213 L 311 211 L 312 211 L 313 210 L 314 210 L 315 209 L 316 209 L 318 207 L 319 207 L 320 206 L 321 206 L 322 205 L 323 205 L 325 203 L 326 203 L 327 202 L 328 202 L 329 201 L 330 201 L 331 200 L 332 200 L 334 198 L 335 198 L 336 197 L 337 197 L 338 196 L 339 196 L 341 194 L 342 194 L 343 193 L 344 193 L 345 192 L 346 192 L 347 191 L 348 191 L 350 189 L 351 189 L 352 188 L 353 188 L 354 187 L 352 185 L 351 185 L 350 184 L 349 184 L 348 183 L 347 183 L 346 182 L 345 182 L 343 180 L 342 180 L 341 179 L 340 179 L 339 178 L 338 178 L 337 177 L 336 177 L 335 176 L 334 176 L 332 174 L 331 174 L 330 173 L 329 173 L 328 172 L 327 172 L 326 171 L 325 171 L 323 169 L 322 169 L 321 168 L 320 168 L 319 167 L 318 167 L 317 166 L 316 166 L 314 164 L 313 164 L 312 163 L 311 163 L 310 162 L 309 162 L 308 161 L 307 161 L 305 159 L 304 159 L 303 158 L 302 158 L 301 157 L 300 157 L 299 156 L 298 156 L 296 154 L 295 154 L 294 153 L 293 153 L 292 152 L 291 152 L 290 151 L 289 151 L 287 149 L 286 149 L 285 148 L 284 148 L 283 147 L 282 147 L 281 146 L 280 146 L 278 144 L 277 144 L 276 143 L 275 143 L 274 142 L 273 142 L 272 141 L 271 141 L 269 139 L 268 139 L 267 138 L 266 138 L 265 137 L 264 137 L 263 136 L 262 136 L 260 134 L 259 134 L 258 133 L 257 133 L 256 132 L 255 132 L 254 131 L 253 131 L 252 130 L 251 130 L 249 128 L 248 128 L 247 127 L 246 127 L 245 126 L 244 126 L 243 125 L 242 125 L 240 123 L 239 123 L 238 122 L 237 122 L 236 121 L 235 121 L 234 120 L 233 120 L 231 118 L 230 118 L 229 117 L 228 117 L 227 116 L 226 116 L 225 115 L 224 115 L 222 113 L 221 113 L 220 112 L 219 112 L 218 111 L 217 111 L 216 110 L 215 110 L 213 108 L 212 108 L 211 107 L 210 107 L 209 106 L 208 106 L 207 105 L 206 105 L 204 103 L 203 103 L 202 102 L 201 102 L 200 101 L 199 101 L 198 100 L 197 100 L 195 98 L 194 98 L 193 97 L 192 97 L 191 96 L 190 96 L 189 95 L 188 95 L 186 93 L 185 93 L 184 92 L 183 92 L 182 91 L 181 91 L 180 90 L 179 90 L 177 88 L 176 88 L 175 87 L 174 87 L 173 86 L 172 86 L 171 85 L 170 85 L 169 84 L 168 84 L 166 82 L 165 82 L 164 81 L 163 81 L 162 80 L 161 80 L 160 79 L 159 79 L 157 77 L 156 77 L 155 76 L 154 76 L 153 75 L 152 75 L 151 74 L 150 74 L 148 72 L 147 72 L 146 71 L 145 71 L 144 70 L 143 70 L 142 69 L 141 69 L 139 67 L 138 67 L 137 66 Z" fill="white"/>
<path d="M 254 0 L 253 1 L 252 1 L 251 2 L 250 2 L 249 3 L 248 3 L 247 4 L 246 4 L 244 6 L 243 6 L 242 7 L 241 7 L 240 8 L 239 8 L 238 9 L 237 9 L 235 11 L 234 11 L 233 12 L 232 12 L 231 13 L 230 13 L 229 14 L 228 14 L 226 16 L 225 16 L 224 17 L 223 17 L 222 18 L 221 18 L 220 19 L 219 19 L 218 20 L 217 20 L 215 22 L 214 22 L 213 23 L 212 23 L 211 24 L 210 24 L 209 25 L 208 25 L 206 27 L 205 27 L 204 28 L 203 28 L 202 29 L 201 29 L 200 30 L 199 30 L 197 32 L 196 32 L 195 33 L 194 33 L 193 34 L 192 34 L 191 35 L 190 35 L 188 37 L 187 37 L 186 38 L 185 38 L 184 39 L 183 39 L 182 40 L 181 40 L 179 42 L 178 42 L 177 43 L 176 43 L 175 44 L 174 44 L 173 45 L 172 45 L 171 46 L 170 46 L 168 48 L 167 48 L 167 49 L 168 50 L 169 50 L 170 51 L 171 51 L 172 52 L 173 52 L 174 53 L 175 53 L 177 55 L 178 55 L 179 56 L 180 56 L 181 57 L 182 57 L 183 58 L 184 58 L 186 60 L 187 60 L 188 61 L 189 61 L 190 62 L 191 62 L 192 63 L 193 63 L 195 65 L 196 65 L 197 66 L 198 66 L 199 67 L 200 67 L 201 68 L 202 68 L 204 70 L 205 70 L 206 71 L 207 71 L 208 72 L 209 72 L 210 73 L 211 73 L 213 75 L 214 75 L 215 76 L 216 76 L 217 77 L 218 77 L 219 78 L 220 78 L 222 80 L 223 80 L 224 81 L 225 81 L 226 82 L 227 82 L 228 83 L 229 83 L 230 84 L 231 84 L 233 86 L 234 86 L 235 87 L 236 87 L 237 88 L 238 88 L 239 89 L 240 89 L 242 91 L 243 91 L 244 92 L 245 92 L 246 93 L 247 93 L 248 94 L 249 94 L 251 96 L 252 96 L 253 97 L 254 97 L 255 98 L 256 98 L 257 99 L 258 99 L 260 101 L 261 101 L 262 102 L 263 102 L 264 103 L 265 103 L 266 104 L 267 104 L 269 106 L 270 106 L 271 107 L 272 107 L 273 108 L 274 108 L 275 109 L 276 109 L 278 111 L 279 111 L 280 112 L 281 112 L 282 113 L 283 113 L 284 114 L 285 114 L 287 116 L 288 116 L 289 117 L 290 117 L 291 118 L 292 118 L 293 119 L 294 119 L 296 121 L 297 121 L 298 122 L 299 122 L 300 123 L 301 123 L 302 124 L 303 124 L 305 126 L 306 126 L 307 127 L 308 127 L 309 128 L 310 128 L 311 129 L 312 129 L 313 130 L 314 130 L 316 132 L 317 132 L 318 133 L 319 133 L 320 134 L 321 134 L 322 135 L 323 135 L 325 137 L 326 137 L 327 138 L 328 138 L 329 139 L 330 139 L 331 140 L 332 140 L 334 142 L 335 142 L 336 143 L 337 143 L 338 144 L 339 144 L 340 145 L 341 145 L 343 147 L 344 147 L 345 148 L 346 148 L 347 149 L 348 149 L 349 150 L 350 150 L 352 152 L 353 152 L 354 153 L 355 153 L 356 154 L 357 154 L 358 155 L 359 155 L 361 157 L 362 157 L 363 158 L 364 158 L 365 159 L 366 159 L 367 160 L 368 160 L 370 162 L 371 162 L 372 163 L 373 163 L 374 164 L 375 164 L 376 165 L 377 165 L 379 167 L 380 167 L 381 168 L 382 168 L 383 169 L 384 169 L 385 170 L 386 169 L 387 169 L 389 167 L 390 167 L 391 166 L 392 166 L 393 165 L 394 165 L 396 163 L 397 163 L 398 162 L 399 162 L 400 161 L 401 161 L 402 160 L 403 160 L 405 158 L 406 158 L 407 157 L 408 157 L 409 156 L 410 156 L 412 154 L 413 154 L 414 153 L 415 153 L 416 152 L 417 152 L 418 151 L 419 151 L 421 149 L 422 149 L 423 148 L 424 148 L 425 147 L 426 147 L 428 145 L 429 145 L 430 144 L 431 144 L 432 143 L 433 143 L 434 142 L 435 142 L 437 140 L 438 140 L 439 139 L 440 139 L 441 138 L 442 138 L 444 136 L 445 136 L 446 135 L 447 135 L 448 134 L 449 134 L 450 133 L 451 133 L 453 131 L 454 131 L 455 130 L 456 130 L 457 129 L 458 129 L 460 127 L 461 127 L 462 126 L 463 126 L 464 125 L 465 125 L 466 124 L 467 124 L 469 122 L 470 122 L 471 121 L 472 121 L 473 120 L 472 119 L 471 119 L 470 118 L 469 118 L 467 116 L 466 116 L 465 115 L 464 115 L 463 114 L 462 114 L 461 113 L 460 113 L 458 111 L 457 111 L 456 110 L 455 110 L 454 109 L 453 109 L 452 108 L 451 108 L 450 107 L 449 107 L 447 105 L 446 105 L 445 104 L 444 104 L 443 103 L 442 103 L 441 102 L 440 102 L 438 100 L 437 100 L 436 99 L 435 99 L 434 98 L 433 98 L 432 97 L 431 97 L 429 95 L 428 95 L 427 94 L 426 94 L 425 93 L 424 93 L 423 92 L 422 92 L 420 90 L 419 90 L 418 89 L 417 89 L 416 88 L 415 88 L 414 87 L 413 87 L 411 85 L 410 85 L 409 84 L 408 84 L 407 83 L 406 83 L 405 82 L 404 82 L 402 80 L 401 80 L 400 79 L 399 79 L 398 78 L 397 78 L 396 77 L 395 77 L 394 76 L 393 76 L 391 74 L 390 74 L 389 73 L 388 73 L 387 72 L 386 72 L 385 71 L 384 71 L 382 69 L 381 69 L 380 68 L 379 68 L 378 67 L 377 67 L 376 66 L 375 66 L 373 64 L 372 64 L 371 63 L 370 63 L 369 62 L 368 62 L 367 61 L 366 61 L 364 59 L 363 59 L 362 58 L 361 58 L 360 57 L 359 57 L 358 56 L 357 56 L 355 54 L 354 54 L 353 53 L 352 53 L 351 52 L 350 52 L 349 51 L 348 51 L 347 50 L 346 50 L 344 48 L 343 48 L 342 47 L 341 47 L 340 46 L 339 46 L 338 45 L 337 45 L 335 43 L 334 43 L 333 42 L 332 42 L 331 41 L 330 41 L 329 40 L 328 40 L 326 38 L 325 38 L 324 37 L 323 37 L 322 36 L 321 36 L 320 35 L 319 35 L 317 33 L 316 33 L 315 32 L 314 32 L 313 31 L 312 31 L 311 30 L 310 30 L 308 28 L 307 28 L 306 27 L 305 27 L 304 26 L 303 26 L 302 25 L 301 25 L 300 24 L 299 24 L 297 22 L 296 22 L 295 21 L 294 21 L 293 20 L 292 20 L 291 19 L 290 19 L 288 17 L 287 17 L 286 16 L 285 16 L 284 15 L 283 15 L 282 14 L 281 14 L 279 12 L 278 12 L 277 11 L 276 11 L 275 10 L 274 10 L 273 9 L 272 9 L 270 7 L 269 7 L 268 6 L 267 6 L 266 5 L 265 5 L 264 4 L 263 4 L 261 2 L 260 2 L 259 1 L 258 1 L 257 0 Z" fill="white"/>
</svg>