<svg xmlns="http://www.w3.org/2000/svg" viewBox="0 0 512 512">
<path d="M 272 304 L 272 485 L 355 485 L 356 484 L 370 484 L 371 483 L 378 483 L 379 482 L 383 482 L 384 481 L 387 481 L 388 480 L 390 480 L 391 479 L 393 479 L 394 478 L 395 478 L 396 477 L 398 477 L 400 475 L 401 475 L 402 474 L 403 474 L 404 473 L 405 473 L 407 471 L 408 471 L 411 468 L 412 468 L 418 462 L 419 462 L 419 461 L 425 455 L 425 454 L 428 451 L 428 450 L 430 448 L 430 447 L 431 446 L 431 445 L 433 443 L 433 442 L 434 441 L 434 440 L 435 439 L 435 437 L 436 436 L 436 435 L 437 434 L 437 432 L 438 431 L 438 428 L 439 427 L 439 424 L 440 423 L 440 417 L 441 416 L 441 406 L 442 405 L 442 315 L 441 314 L 441 313 L 440 312 L 440 311 L 438 309 L 438 308 L 437 307 L 436 307 L 434 305 L 433 305 L 432 304 Z" fill="white"/>
<path d="M 79 304 L 78 305 L 77 305 L 75 307 L 74 307 L 72 309 L 72 310 L 71 311 L 71 312 L 70 313 L 70 314 L 69 315 L 69 405 L 70 406 L 70 416 L 71 417 L 71 423 L 72 424 L 72 427 L 73 428 L 73 431 L 74 432 L 74 434 L 75 435 L 75 436 L 76 437 L 76 439 L 77 440 L 77 441 L 78 442 L 78 443 L 80 445 L 80 446 L 81 447 L 81 448 L 83 450 L 83 451 L 86 454 L 86 455 L 99 468 L 100 468 L 103 471 L 104 471 L 106 473 L 107 473 L 108 474 L 109 474 L 110 475 L 111 475 L 112 476 L 113 476 L 114 477 L 115 477 L 116 478 L 117 478 L 118 479 L 120 479 L 121 480 L 123 480 L 124 481 L 127 481 L 128 482 L 132 482 L 133 483 L 140 483 L 141 484 L 155 484 L 156 485 L 239 485 L 239 304 Z" fill="white"/>
<path d="M 171 26 L 170 27 L 163 27 L 162 28 L 158 28 L 157 29 L 155 29 L 154 30 L 152 30 L 151 31 L 149 31 L 148 32 L 147 32 L 146 33 L 144 33 L 143 34 L 142 34 L 141 35 L 140 35 L 138 37 L 137 37 L 135 39 L 134 39 L 131 42 L 130 42 L 121 51 L 121 52 L 118 55 L 118 56 L 117 57 L 117 58 L 115 60 L 115 61 L 114 62 L 114 63 L 113 64 L 113 65 L 112 66 L 112 67 L 111 68 L 111 70 L 110 71 L 110 73 L 109 74 L 109 77 L 108 78 L 108 81 L 107 82 L 107 88 L 106 89 L 106 102 L 107 103 L 107 109 L 108 110 L 108 113 L 109 114 L 109 117 L 110 118 L 110 120 L 111 121 L 111 122 L 112 123 L 112 125 L 113 126 L 113 127 L 114 128 L 114 129 L 115 130 L 115 131 L 116 132 L 115 133 L 77 133 L 76 134 L 71 134 L 70 135 L 68 135 L 67 136 L 65 136 L 64 137 L 62 137 L 61 138 L 60 138 L 59 139 L 58 139 L 57 140 L 56 140 L 55 141 L 54 141 L 52 143 L 51 143 L 48 146 L 47 146 L 39 154 L 39 155 L 36 158 L 36 159 L 35 160 L 35 161 L 33 163 L 33 164 L 32 165 L 32 166 L 31 167 L 31 169 L 30 170 L 30 171 L 29 172 L 29 174 L 28 175 L 28 178 L 27 179 L 27 186 L 26 187 L 26 217 L 27 218 L 27 225 L 28 226 L 28 229 L 29 230 L 29 232 L 30 233 L 30 235 L 31 236 L 31 237 L 32 238 L 32 239 L 33 240 L 33 241 L 34 242 L 34 243 L 36 245 L 36 246 L 38 248 L 38 249 L 49 260 L 50 260 L 52 262 L 53 262 L 54 263 L 55 263 L 57 265 L 58 265 L 59 266 L 60 266 L 61 267 L 63 267 L 64 268 L 66 268 L 67 269 L 69 269 L 70 270 L 74 270 L 75 271 L 239 271 L 239 134 L 240 133 L 271 133 L 272 134 L 272 271 L 436 271 L 437 270 L 441 270 L 442 269 L 444 269 L 445 268 L 447 268 L 448 267 L 450 267 L 451 266 L 452 266 L 453 265 L 454 265 L 455 264 L 456 264 L 458 262 L 459 262 L 461 260 L 462 260 L 473 249 L 473 248 L 475 246 L 475 245 L 477 243 L 477 242 L 478 241 L 478 240 L 479 239 L 479 238 L 480 237 L 480 236 L 481 235 L 481 233 L 482 232 L 482 230 L 483 229 L 483 226 L 484 225 L 484 218 L 485 217 L 485 187 L 484 186 L 484 179 L 483 178 L 483 175 L 482 174 L 482 172 L 481 171 L 481 170 L 480 169 L 480 167 L 479 166 L 479 165 L 478 164 L 478 163 L 476 161 L 476 160 L 475 159 L 475 158 L 472 155 L 472 154 L 464 146 L 463 146 L 460 143 L 459 143 L 457 141 L 456 141 L 455 140 L 454 140 L 453 139 L 452 139 L 451 138 L 450 138 L 449 137 L 447 137 L 446 136 L 444 136 L 443 135 L 441 135 L 440 134 L 435 134 L 434 133 L 396 133 L 395 132 L 396 131 L 396 130 L 397 129 L 397 128 L 398 127 L 398 126 L 399 125 L 399 124 L 400 123 L 400 121 L 401 120 L 401 118 L 402 117 L 402 114 L 403 113 L 403 110 L 404 109 L 404 103 L 405 102 L 405 89 L 404 88 L 404 82 L 403 81 L 403 78 L 402 77 L 402 74 L 401 73 L 401 71 L 400 70 L 400 68 L 399 67 L 399 66 L 398 65 L 398 64 L 397 63 L 397 62 L 396 61 L 396 60 L 394 58 L 394 57 L 393 56 L 393 55 L 390 52 L 390 51 L 381 42 L 380 42 L 377 39 L 376 39 L 374 37 L 373 37 L 371 35 L 370 35 L 369 34 L 368 34 L 367 33 L 365 33 L 364 32 L 363 32 L 362 31 L 360 31 L 359 30 L 357 30 L 356 29 L 354 29 L 353 28 L 349 28 L 348 27 L 341 27 L 340 26 L 326 26 L 325 27 L 318 27 L 317 28 L 313 28 L 312 29 L 310 29 L 309 30 L 306 30 L 305 31 L 304 31 L 303 32 L 301 32 L 300 33 L 299 33 L 298 34 L 297 34 L 296 35 L 295 35 L 294 36 L 293 36 L 292 37 L 291 37 L 290 38 L 289 38 L 287 40 L 286 40 L 283 43 L 282 43 L 278 47 L 277 47 L 270 54 L 270 55 L 266 59 L 266 60 L 263 63 L 263 64 L 261 66 L 261 67 L 259 69 L 259 70 L 258 71 L 258 72 L 257 73 L 257 74 L 255 76 L 254 75 L 254 74 L 252 72 L 252 71 L 251 70 L 251 69 L 249 67 L 249 66 L 247 64 L 247 63 L 244 60 L 244 59 L 239 54 L 239 53 L 233 47 L 232 47 L 228 43 L 227 43 L 224 40 L 223 40 L 221 38 L 220 38 L 219 37 L 218 37 L 217 36 L 216 36 L 214 34 L 212 34 L 211 33 L 210 33 L 209 32 L 208 32 L 207 31 L 205 31 L 204 30 L 202 30 L 201 29 L 198 29 L 197 28 L 193 28 L 192 27 L 186 27 L 185 26 Z" fill="white"/>
</svg>