<?xml version="1.0" encoding="UTF-8" standalone="no"?>
<svg
   version="1.0"
   width="825.35974pt"
   height="665.07764pt"
   viewBox="0 0 825.35974 665.07764"
   preserveAspectRatio="xMidYMid"
   id="svg1"
   sodipodi:docname="logotip-icon-only.svg"
   xmlns:inkscape="http://www.inkscape.org/namespaces/inkscape"
   xmlns:sodipodi="http://sodipodi.sourceforge.net/DTD/sodipodi-0.dtd"
   xmlns="http://www.w3.org/2000/svg"
   xmlns:svg="http://www.w3.org/2000/svg">
  <defs
     id="defs1" />
  <sodipodi:namedview
     id="namedview1"
     pagecolor="#ffffff"
     bordercolor="#000000"
     borderopacity="0.25"
     inkscape:showpageshadow="2"
     inkscape:pageopacity="0.0"
     inkscape:pagecheckerboard="0"
     inkscape:deskcolor="#d1d1d1"
     inkscape:document-units="pt" />
  <g
     transform="matrix(0.1,0,0,-0.1,-601.59936,1306.6255)"
     fill="#000000"
     stroke="none"
     id="g1">
    <path
       d="m 8657,13059 c -306,-31 -620,-155 -866,-342 -354,-269 -586,-628 -668,-1032 -28,-141 -25,-406 6,-550 39,-182 21,-276 -73,-373 -47,-50 -93,-76 -162,-93 -174,-42 -392,-191 -531,-364 -232,-287 -348,-648 -347,-1080 1,-818 437,-1537 1259,-2078 528,-347 1181,-573 1940,-671 531,-69 1042,-79 1580,-30 1055,94 1903,410 2548,949 332,278 589,608 737,944 244,558 253,1186 24,1671 -160,339 -413,570 -725,664 -103,31 -173,86 -213,169 -38,78 -42,143 -16,272 100,495 -46,984 -411,1378 -307,331 -702,527 -1146,568 -242,22 -519,-29 -728,-133 -175,-88 -358,-245 -415,-357 -42,-85 -82,-126 -158,-163 -60,-30 -76,-33 -152,-33 -71,0 -94,5 -140,26 -68,33 -133,96 -164,163 -14,28 -52,82 -86,118 -246,269 -683,420 -1093,377 z m -650,-1329 c 74,-37 117,-83 155,-170 65,-146 84,-177 153,-245 187,-187 457,-228 705,-108 62,31 95,57 192,155 141,143 189,170 302,171 220,1 374,-207 311,-419 -20,-67 -65,-133 -155,-228 -187,-196 -454,-340 -720,-387 -107,-19 -345,-17 -453,4 -435,86 -801,400 -936,804 -27,80 -28,185 -2,253 68,180 271,256 448,170 z m 4515,20 c 110,-34 184,-114 214,-232 26,-101 3,-202 -84,-373 -261,-508 -868,-771 -1432,-620 -248,67 -479,210 -644,401 -95,109 -130,186 -131,284 0,66 5,85 33,142 57,117 157,180 286,181 113,0 166,-29 301,-167 91,-93 124,-119 191,-154 113,-58 193,-75 324,-69 82,3 120,10 175,31 151,58 253,152 321,296 74,156 77,160 116,201 87,89 205,118 330,79 z M 9439,9506 c 101,-27 148,-72 261,-246 83,-129 185,-229 290,-285 68,-36 82,-40 150,-40 62,0 85,5 133,29 125,61 233,168 334,331 86,140 131,179 239,211 154,45 327,-43 385,-196 23,-62 25,-162 3,-226 -40,-119 -195,-335 -341,-475 -204,-195 -424,-304 -669,-331 -331,-37 -713,151 -975,482 -88,110 -186,274 -206,339 -60,206 93,414 307,420 19,0 59,-6 89,-13 z"
       id="path1" />
  </g>
</svg>
