<?xml version="1.0" standalone="no"?>
<!DOCTYPE svg PUBLIC "-//W3C//DTD SVG 20010904//EN"
 "http://www.w3.org/TR/2001/REC-SVG-20010904/DTD/svg10.dtd">
<svg version="1.0" xmlns="http://www.w3.org/2000/svg"
 width="2048.000000pt" height="2048.000000pt" viewBox="0 0 2048.000000 2048.000000"
 preserveAspectRatio="xMidYMid meet">

<g transform="translate(0.000000,2048.000000) scale(0.100000,-0.100000)"
fill="#000000" stroke="none">
<path d="M0 10240 l0 -10240 10240 0 10240 0 0 10240 0 10240 -10240 0 -10240
0 0 -10240z m9072 3464 c377 -49 729 -198 999 -424 l71 -59 61 52 c252 212
567 356 917 418 147 27 417 36 571 20 551 -57 1064 -304 1464 -705 355 -357
570 -762 656 -1241 18 -97 22 -163 24 -343 l2 -224 72 -39 c544 -295 926 -923
1002 -1647 17 -170 7 -575 -20 -727 -56 -323 -141 -580 -289 -870 -179 -350
-431 -667 -762 -958 -700 -615 -1591 -989 -2695 -1132 -581 -75 -1206 -84
-1791 -25 -1325 135 -2340 574 -3109 1345 -471 472 -759 1039 -862 1695 -26
164 -26 606 0 770 109 702 468 1260 998 1554 l67 36 0 203 c0 231 14 350 67
553 239 918 1085 1645 2040 1752 133 15 383 13 517 -4z"/>
<path d="M8657 13059 c-306 -31 -620 -155 -866 -342 -354 -269 -586 -628 -668
-1032 -28 -141 -25 -406 6 -550 39 -182 21 -276 -73 -373 -47 -50 -93 -76
-162 -93 -174 -42 -392 -191 -531 -364 -232 -287 -348 -648 -347 -1080 1 -818
437 -1537 1259 -2078 528 -347 1181 -573 1940 -671 531 -69 1042 -79 1580 -30
1055 94 1903 410 2548 949 332 278 589 608 737 944 244 558 253 1186 24 1671
-160 339 -413 570 -725 664 -103 31 -173 86 -213 169 -38 78 -42 143 -16 272
100 495 -46 984 -411 1378 -307 331 -702 527 -1146 568 -242 22 -519 -29 -728
-133 -175 -88 -358 -245 -415 -357 -42 -85 -82 -126 -158 -163 -60 -30 -76
-33 -152 -33 -71 0 -94 5 -140 26 -68 33 -133 96 -164 163 -14 28 -52 82 -86
118 -246 269 -683 420 -1093 377z m-650 -1329 c74 -37 117 -83 155 -170 65
-146 84 -177 153 -245 187 -187 457 -228 705 -108 62 31 95 57 192 155 141
143 189 170 302 171 220 1 374 -207 311 -419 -20 -67 -65 -133 -155 -228 -187
-196 -454 -340 -720 -387 -107 -19 -345 -17 -453 4 -435 86 -801 400 -936 804
-27 80 -28 185 -2 253 68 180 271 256 448 170z m4515 20 c110 -34 184 -114
214 -232 26 -101 3 -202 -84 -373 -261 -508 -868 -771 -1432 -620 -248 67
-479 210 -644 401 -95 109 -130 186 -131 284 0 66 5 85 33 142 57 117 157 180
286 181 113 0 166 -29 301 -167 91 -93 124 -119 191 -154 113 -58 193 -75 324
-69 82 3 120 10 175 31 151 58 253 152 321 296 74 156 77 160 116 201 87 89
205 118 330 79z m-3083 -2244 c101 -27 148 -72 261 -246 83 -129 185 -229 290
-285 68 -36 82 -40 150 -40 62 0 85 5 133 29 125 61 233 168 334 331 86 140
131 179 239 211 154 45 327 -43 385 -196 23 -62 25 -162 3 -226 -40 -119 -195
-335 -341 -475 -204 -195 -424 -304 -669 -331 -331 -37 -713 151 -975 482 -88
110 -186 274 -206 339 -60 206 93 414 307 420 19 0 59 -6 89 -13z"/>
</g>
</svg>
