<?xml version="1.0" standalone="no"?>
<!DOCTYPE svg PUBLIC "-//W3C//DTD SVG 20010904//EN"
 "http://www.w3.org/TR/2001/REC-SVG-20010904/DTD/svg10.dtd">
<svg version="1.0" xmlns="http://www.w3.org/2000/svg"
 width="225.000000pt" height="225.000000pt" viewBox="0 0 225.000000 225.000000"
 preserveAspectRatio="xMidYMid meet">

<g transform="translate(0.000000,225.000000) scale(0.100000,-0.100000)"
fill="#000000" stroke="none">
<path d="M1315 1690 c-473 -98 -959 -199 -1080 -225 -120 -25 -223 -51 -227
-58 -4 -6 -7 -19 -5 -27 3 -17 25 -29 382 -218 l259 -137 54 -305 c29 -168 57
-312 61 -320 5 -8 16 -17 25 -18 10 -2 112 59 232 139 l215 143 32 -19 c18
-10 117 -74 220 -142 103 -68 196 -123 207 -123 11 0 23 8 29 18 32 60 530
1438 526 1454 -5 13 -16 18 -38 17 -18 0 -419 -81 -892 -179z m560 17 c-124
-69 -1189 -610 -1199 -610 -14 0 -516 266 -516 273 0 3 226 52 502 109 277 57
670 139 873 182 204 42 377 78 385 78 8 0 -12 -14 -45 -32z m28 -604 c-125
-340 -231 -621 -235 -623 -9 -7 -658 413 -655 423 3 9 1110 826 1115 822 2 -2
-100 -281 -225 -622z m-123 463 c-8 -7 -204 -152 -435 -321 -231 -169 -425
-314 -431 -321 -6 -8 -33 -86 -60 -174 -27 -87 -51 -156 -55 -152 -12 13 -80
425 -72 433 8 7 1053 547 1063 548 2 1 -2 -5 -10 -13z m-688 -809 c37 -23 67
-45 65 -49 -3 -10 -288 -200 -293 -195 -3 2 66 239 92 315 3 11 11 9 37 -7 17
-12 62 -41 99 -64z"/>
</g>
</svg>
